HIERARCHY
ROOT joint_Root
{
	OFFSET 0.0 0.0 0.0
	CHANNELS 6 Xposition Yposition Zposition Zrotation Xrotation Yrotation 
	JOINT Hips
	{
		OFFSET -0.726466 93.3139 -2.00062
		CHANNELS 6 Xposition Yposition Zposition Zrotation Xrotation Yrotation 
		JOINT Spine
		{
			OFFSET 15.7357 0.0 0.0
			CHANNELS 6 Xposition Yposition Zposition Zrotation Xrotation Yrotation 
			JOINT Chest
			{
				OFFSET 8.98455 -0.406207 0.0
				CHANNELS 6 Xposition Yposition Zposition Zrotation Xrotation Yrotation 
				JOINT Neck
				{
					OFFSET 16.3773 0.0 0.0
					CHANNELS 6 Xposition Yposition Zposition Zrotation Xrotation Yrotation 
					JOINT Head
					{
						OFFSET 6.45672 0.0 0.0
						CHANNELS 6 Xposition Yposition Zposition Zrotation Xrotation Yrotation 
						End Site
						{
							OFFSET 0.0 0.0 0.0
						}
					}
				}
				JOINT Shoulder_L
				{
					OFFSET 12.9942 -0.242716 4.98039
					CHANNELS 6 Xposition Yposition Zposition Zrotation Xrotation Yrotation 
					JOINT UpperArm_L
					{
						OFFSET 5.34809 0.0 0.0
						CHANNELS 6 Xposition Yposition Zposition Zrotation Xrotation Yrotation 
						JOINT LowerArm_L
						{
							OFFSET 24.3286 1.87007e-05 0.0
							CHANNELS 6 Xposition Yposition Zposition Zrotation Xrotation Yrotation 
							JOINT Hand_L
							{
								OFFSET 22.2916 0.0 0.0
								CHANNELS 6 Xposition Yposition Zposition Zrotation Xrotation Yrotation 
								End Site
								{
									OFFSET 0.0 0.0 0.0
								}
							}
						}
					}
				}
				JOINT Shoulder_R
				{
					OFFSET 12.9945 -0.242716 -4.98039
					CHANNELS 6 Xposition Yposition Zposition Zrotation Xrotation Yrotation 
					JOINT UpperArm_R
					{
						OFFSET -5.34813 0.0 0.0
						CHANNELS 6 Xposition Yposition Zposition Zrotation Xrotation Yrotation 
						JOINT LowerArm_R
						{
							OFFSET -24.3289 0.000322201 0.0
							CHANNELS 6 Xposition Yposition Zposition Zrotation Xrotation Yrotation 
							JOINT Hand_R
							{
								OFFSET -22.2915 -0.000108084 0.0
								CHANNELS 6 Xposition Yposition Zposition Zrotation Xrotation Yrotation 
								End Site
								{
									OFFSET 0.0 0.0 0.0
								}
							}
						}
					}
				}
			}
		}
		JOINT UpperLeg_L
		{
			OFFSET -2.19248 -6.46944 0.0
			CHANNELS 6 Xposition Yposition Zposition Zrotation Xrotation Yrotation 
			JOINT LowerLeg_L
			{
				OFFSET 39.0811 0.0 -1.23785e-05
				CHANNELS 6 Xposition Yposition Zposition Zrotation Xrotation Yrotation 
				JOINT Foot_L
				{
					OFFSET 40.9854 0.0 -1.26872e-05
					CHANNELS 6 Xposition Yposition Zposition Zrotation Xrotation Yrotation 
					JOINT Toes_L
					{
						OFFSET 11.7543 0.0 0.0
						CHANNELS 6 Xposition Yposition Zposition Zrotation Xrotation Yrotation 
						End Site
						{
							OFFSET 0.0 0.0 0.0
						}
					}
				}
			}
		}
		JOINT UpperLeg_R
		{
			OFFSET -2.19251 6.46944 0.0
			CHANNELS 6 Xposition Yposition Zposition Zrotation Xrotation Yrotation 
			JOINT LowerLeg_R
			{
				OFFSET -39.0811 -0.00228153 -0.0401928
				CHANNELS 6 Xposition Yposition Zposition Zrotation Xrotation Yrotation 
				JOINT Foot_R
				{
					OFFSET -40.9854 0.0 0.0
					CHANNELS 6 Xposition Yposition Zposition Zrotation Xrotation Yrotation 
					JOINT Toes_R
					{
						OFFSET -11.7543 0.0 0.0
						CHANNELS 6 Xposition Yposition Zposition Zrotation Xrotation Yrotation 
						End Site
						{
							OFFSET 0.0 0.0 0.0
						}
					}
				}
			}
		}
	}
}
MOTION
Frames:	4
Frame Time:	0.0333333
0.000000 0.000000 0.000000 0.000000 0.000000 -0.000000 -2.235990 92.249500 -3.149680 87.307700 -3.214370 2.090880 15.735700 0.000005 -0.000001 61.301400 85.817500 -58.034400 8.984550 -0.406207 -0.000000 -0.297980 -4.245680 6.521810 16.377300 -0.000001 -0.000001 0.524406 0.473600 -2.004240 6.456720 -0.000001 -0.000000 -0.975056 2.736000 11.266100 12.994200 -0.242716 4.980390 -85.060100 -10.477700 -64.579000 5.348090 -0.000007 -0.000001 -69.857700 -51.650600 -103.818000 24.328600 0.000019 0.000005 8.930150 4.212240 -64.946700 22.291600 -0.000001 0.000005 17.173100 5.610660 -12.001200 12.994500 -0.242716 -4.980390 89.924400 0.198372 -69.151300 -5.348130 -0.000001 -0.000004 -49.843100 78.483900 4.506660 -24.328900 0.000322 -0.000009 28.577600 0.519351 -89.047200 -22.291500 -0.000108 -0.000004 38.612700 5.648890 -14.910700 -2.192480 -6.469440 -0.000000 -167.317000 -17.020000 -3.164110 39.081100 -0.000007 -0.000012 -0.142500 0.417592 18.841900 40.985400 -0.000006 -0.000013 -7.631870 2.523990 -60.955400 11.754300 -0.000000 0.000003 -0.000076 -0.000814 -16.609000 -2.192510 6.469440 -0.000001 176.484000 18.475200 176.525000 -39.081100 -0.002282 -0.040193 -0.058931 0.182197 18.864700 -40.985400 0.000008 0.000006 -3.187720 3.300250 -61.772900 -11.754300 -0.000006 -0.000006 -0.005894 -0.069868 -19.416500
0.000000 0.000000 0.000000 0.000000 0.000000 -0.000000 -2.227240 92.243200 -3.137810 87.322900 -3.241220 2.163760 15.735700 0.000005 -0.000001 61.302300 85.812200 -58.049600 8.984550 -0.406207 -0.000000 -0.289155 -4.249360 6.493570 16.377300 -0.000001 -0.000001 0.540253 0.462269 -2.046250 6.456720 -0.000001 -0.000000 -0.967245 2.735200 11.247700 12.994200 -0.242716 4.980390 -85.073700 -10.446800 -64.575600 5.348090 -0.000007 -0.000001 -69.960000 -51.664400 -103.776000 24.328600 0.000019 0.000005 8.942030 4.204230 -65.018000 22.291600 -0.000001 0.000005 17.251100 5.610110 -11.965800 12.994500 -0.242716 -4.980390 89.910700 0.234458 -69.146000 -5.348130 -0.000001 -0.000004 -50.275400 78.339900 4.949010 -24.328900 0.000322 -0.000009 28.521700 0.519454 -89.044800 -22.291500 -0.000108 -0.000004 38.532800 5.649680 -14.984800 -2.192480 -6.469440 -0.000000 -167.310000 -17.053900 -3.092190 39.081100 -0.000007 -0.000012 -0.143084 0.418257 18.885800 40.985400 -0.000006 -0.000013 -7.625470 2.529670 -60.988500 11.754300 -0.000000 0.000003 -0.000075 -0.000804 -16.608600 -2.192510 6.469440 -0.000001 176.440000 18.474200 176.574000 -39.081100 -0.002282 -0.040193 -0.057755 0.177987 18.940100 -40.985400 0.000008 0.000006 -3.133310 3.344300 -61.823900 -11.754300 -0.000006 -0.000006 -0.005989 -0.070733 -19.451800
0.000000 0.000000 0.000000 0.000000 0.000000 -0.000000 -2.222710 92.240300 -3.137280 87.335300 -3.265770 2.156320 15.735700 0.000005 -0.000001 61.137800 85.830200 -57.901900 8.984550 -0.406207 -0.000000 -0.332949 -4.253130 6.458260 16.377300 -0.000001 -0.000001 0.535811 0.451842 -2.067280 6.456720 -0.000001 -0.000000 -0.928384 2.714080 11.262600 12.994200 -0.242716 4.980390 -85.072800 -10.430100 -64.536400 5.348090 -0.000007 -0.000001 -70.003600 -51.724400 -103.731000 24.328600 0.000019 0.000005 9.008150 4.232540 -65.035300 22.291600 -0.000001 0.000005 17.179500 5.610250 -11.975300 12.994500 -0.242716 -4.980390 89.899500 0.263691 -69.146600 -5.348130 -0.000001 -0.000004 -50.697500 78.177800 5.375100 -24.328900 0.000322 -0.000009 28.531500 0.534946 -89.016700 -22.291500 -0.000108 -0.000004 38.335800 5.651430 -15.153500 -2.192480 -6.469440 -0.000000 -167.338000 -17.042200 -3.116170 39.081100 -0.000007 -0.000012 -0.143867 0.419733 18.919700 40.985400 -0.000006 -0.000013 -7.622350 2.477330 -61.010800 11.754300 -0.000000 0.000003 -0.000086 -0.000908 -16.612500 -2.192510 6.469440 -0.000001 176.417000 18.515500 176.548000 -39.081100 -0.002282 -0.040193 -0.058159 0.178899 18.966300 -40.985400 0.000008 0.000006 -3.153750 3.416070 -61.823400 -11.754300 -0.000006 -0.000006 -0.005959 -0.070460 -19.440700
0.000000 0.000000 0.000000 0.000000 0.000000 -0.000000 -2.230660 92.232700 -3.128480 87.338400 -3.248140 2.283080 15.735700 0.000005 -0.000001 61.295700 85.813300 -58.070900 8.984550 -0.406207 -0.000000 -0.292676 -4.247360 6.437520 16.377300 -0.000001 -0.000001 0.582457 0.432476 -2.094250 6.456720 -0.000001 -0.000000 -0.965353 2.672690 11.237900 12.994200 -0.242716 4.980390 -85.089000 -10.398400 -64.543200 5.348090 -0.000007 -0.000001 -69.966600 -51.777700 -103.652000 24.328600 0.000019 0.000005 9.030600 4.255760 -64.971000 22.291600 -0.000001 0.000005 17.182600 5.609350 -11.917700 12.994500 -0.242716 -4.980390 89.880600 0.312539 -69.098500 -5.348130 -0.000001 -0.000004 -50.965800 78.119400 5.669860 -24.328900 0.000322 -0.000009 28.573400 0.541686 -89.006100 -22.291500 -0.000108 -0.000004 38.387100 5.650950 -15.106900 -2.192480 -6.469440 -0.000000 -167.288000 -16.986700 -2.991310 39.081100 -0.000007 -0.000012 -0.145193 0.422957 18.946600 40.985400 -0.000006 -0.000013 -7.640780 2.466340 -61.033500 11.754300 -0.000000 0.000003 -0.000079 -0.000843 -16.610000 -2.192510 6.469440 -0.000001 176.374000 18.553300 176.647000 -39.081100 -0.002282 -0.040193 -0.058636 0.179313 19.062000 -40.985400 0.000008 0.000006 -3.044970 3.445160 -61.891600 -11.754300 -0.000006 -0.000006 -0.005923 -0.070135 -19.427400
